<?xml version="1.0" encoding="utf-8"?>
<!-- Generator: Adobe Illustrator 17.0.0, SVG Export Plug-In . SVG Version: 6.00 Build 0)  -->
<!DOCTYPE svg PUBLIC "-//W3C//DTD SVG 1.1//EN" "http://www.w3.org/Graphics/SVG/1.1/DTD/svg11.dtd">
<svg version="1.1" id="Layer_1" xmlns="http://www.w3.org/2000/svg" xmlns:xlink="http://www.w3.org/1999/xlink" x="0px" y="0px"
	 width="593.391px" height="183.013px" viewBox="-491.981 432.503 593.391 183.013"
	 enable-background="new -491.981 432.503 593.391 183.013" xml:space="preserve">
<g>
	<path fill="#043bff" d="M-491.981,573.716c0,2.758,2.482,5.24,5.24,5.24h13.239c4.413,0,7.447-0.552,7.447-5.24v-70.055
		c1.103-1.931,8.826-13.514,24.823-13.514c3.585,0,7.723,1.103,9.377,1.931c2.482,1.103,5.24,0.552,6.619-2.482l6.619-13.514
		c3.034-7.447-9.653-10.205-20.134-10.205c-20.134,0-30.339,13.239-32.269,15.997l-3.034-9.377
		c-0.552-2.206-2.758-3.861-4.689-3.861h-7.998c-2.758,0-5.24,2.482-5.24,5.24C-491.981,473.874-491.981,573.716-491.981,573.716z"
		/>
	<path fill="#043bff" d="M-422.478,523.795c0,31.718,22.064,57.919,55.437,57.919c18.479,0,32.821-6.895,40.819-13.79
		c3.31-2.758,2.482-4.964,0.552-7.171l-7.723-10.481c-2.206-2.758-4.137-1.655-7.447,0.276c-5.516,3.586-14.618,7.998-24.547,7.998
		c-17.927,0-30.89-14.618-31.718-29.511h75.019c2.482,0,4.689-1.931,4.965-4.689c0.276-1.931,0.552-5.516,0.552-7.447
		c0-29.511-22.064-51.024-50.748-51.024C-400.414,465.876-422.478,492.629-422.478,523.795L-422.478,523.795z M-395.725,511.66
		c1.655-13.79,13.239-24.547,28.132-24.547c13.514,0,24.547,11.308,25.374,24.547C-342.219,511.66-395.725,511.66-395.725,511.66z"
		/>
	<g>
		<path fill="none" d="M-251.663,489.871c-15.997,0-24.271,12.687-25.374,15.997v44.129c0,0,9.653,7.998,24.271,7.998
			c18.203,0,31.442-15.169,31.442-33.924C-221.324,505.592-232.908,489.871-251.663,489.871z"/>
		<path fill="#043bff" d="M-248.353,465.876c-20.41,0-31.718,11.584-33.648,13.514l-2.758-7.171
			c-1.103-2.482-2.482-3.586-4.689-3.586h-8.274c-2.758,0-5.24,2.482-5.24,5.24v141.642h26.477v-41.249
			c1.931,1.103,12.687,7.447,27.029,7.447c30.063,0,53.782-25.374,53.782-57.643C-195.674,492.353-218.015,465.876-248.353,465.876z
			 M-252.766,557.995c-14.618,0-24.271-7.998-24.271-7.998v-44.129c1.103-3.31,9.377-15.997,25.374-15.997
			c18.755,0,30.339,15.721,30.339,34.2C-221.324,542.826-234.563,557.995-252.766,557.995z"/>
	</g>
	<path fill="#043bff" d="M-184.366,523.519c0,31.718,24.822,58.195,55.713,58.195s55.713-26.477,55.713-58.195
		c0-31.166-24.822-57.643-55.713-57.643S-184.366,492.353-184.366,523.519z M-159.82,523.519c0-18.479,13.79-33.648,31.166-33.648
		s31.166,15.169,31.166,33.648c0,19.031-13.79,34.476-31.166,34.476S-159.82,542.55-159.82,523.519z"/>
	<path fill="#043bff" d="M-62.828,573.716c0,2.758,2.482,5.24,5.24,5.24h13.239c4.413,0,7.447-0.552,7.447-5.24v-70.055
		c1.103-1.931,8.826-13.514,24.822-13.514c3.585,0,7.723,1.103,9.377,1.931c2.482,1.103,5.24,0.552,6.619-2.482l6.619-13.514
		c3.034-7.447-9.653-10.205-20.134-10.205c-20.134,0-30.339,13.239-32.269,15.997l-3.034-9.377
		c-0.552-2.206-2.758-3.861-4.689-3.861h-7.998c-2.758,0-5.24,2.482-5.24,5.24L-62.828,573.716L-62.828,573.716z"/>
	<path fill="#043bff" d="M37.933,548.893c0,19.582,6.344,32.821,28.132,32.821c13.239,0,29.511-6.619,32.269-8.274
		c2.758-1.379,3.861-3.585,2.482-6.619l-4.965-12.135c-1.103-2.482-2.758-4.137-6.344-2.482c-3.31,1.655-11.032,4.964-16.824,4.964
		c-5.24,0-8.826-1.655-8.826-11.032v-54.609h28.132c3.034,0,5.24-2.482,5.24-5.24v-12.411c0-3.034-2.206-5.24-5.24-5.24H63.858
		v-30.89c0-2.758-2.206-5.24-4.965-5.24l-15.721,0.276c-2.758,0-5.24,2.482-5.24,5.24v30.614H26.349c-3.034,0-5.24,2.206-5.24,5.24
		v12.411c0,2.758,2.206,5.24,5.24,5.24h11.584L37.933,548.893L37.933,548.893z"/>
</g>
</svg>
