<?xml version="1.0" encoding="utf-8"?>
<!-- Generator: Adobe Illustrator 19.0.0, SVG Export Plug-In . SVG Version: 6.00 Build 0)  -->
<svg version="1.1" id="Layer_1" xmlns="http://www.w3.org/2000/svg" xmlns:xlink="http://www.w3.org/1999/xlink" x="0px" y="0px"
	 viewBox="-500 738.5 593.4 183" style="enable-background:new -500 738.5 593.4 183;" xml:space="preserve">
<style type="text/css">
	.st0{fill:#FFFFFF;}
	.st1{fill:none;}
</style>
<g>
	<path class="st0" d="M-500,879.7c0,2.8,2.5,5.2,5.2,5.2h13.2c4.4,0,7.4-0.6,7.4-5.2v-70.1c1.1-1.9,8.8-13.5,24.8-13.5
		c3.6,0,7.7,1.1,9.4,1.9c2.5,1.1,5.2,0.6,6.6-2.5l6.6-13.5c3-7.4-9.7-10.2-20.1-10.2c-20.1,0-30.3,13.2-32.3,16l-3-9.4
		c-0.6-2.2-2.8-3.9-4.7-3.9h-8c-2.8,0-5.2,2.5-5.2,5.2C-500,779.9-500,879.7-500,879.7z"/>
	<path class="st0" d="M-430.5,829.8c0,31.7,22.1,57.9,55.4,57.9c18.5,0,32.8-6.9,40.8-13.8c3.3-2.8,2.5-5,0.6-7.2l-7.7-10.5
		c-2.2-2.8-4.1-1.7-7.4,0.3c-5.5,3.6-14.6,8-24.5,8c-17.9,0-30.9-14.6-31.7-29.5h75c2.5,0,4.7-1.9,5-4.7c0.3-1.9,0.6-5.5,0.6-7.4
		c0-29.5-22.1-51-50.7-51C-408.4,771.9-430.5,798.6-430.5,829.8L-430.5,829.8z M-403.7,817.6c1.7-13.8,13.2-24.5,28.1-24.5
		c13.5,0,24.5,11.3,25.4,24.5C-350.2,817.6-403.7,817.6-403.7,817.6z"/>
	<g>
		<path class="st1" d="M-259.7,795.9c-16,0-24.3,12.7-25.4,16V856c0,0,9.7,8,24.3,8c18.2,0,31.4-15.2,31.4-33.9
			C-229.3,811.6-240.9,795.9-259.7,795.9z"/>
		<path class="st0" d="M-256.4,771.9c-20.4,0-31.7,11.6-33.6,13.5l-2.8-7.2c-1.1-2.5-2.5-3.6-4.7-3.6h-8.3c-2.8,0-5.2,2.5-5.2,5.2
			v141.6h26.5v-41.2c1.9,1.1,12.7,7.4,27,7.4c30.1,0,53.8-25.4,53.8-57.6C-203.7,798.3-226,771.9-256.4,771.9z M-260.8,864
			c-14.6,0-24.3-8-24.3-8v-44.1c1.1-3.3,9.4-16,25.4-16c18.8,0,30.3,15.7,30.3,34.2C-229.3,848.8-242.6,864-260.8,864z"/>
	</g>
	<path class="st0" d="M-192.4,829.5c0,31.7,24.8,58.2,55.7,58.2s55.7-26.5,55.7-58.2c0-31.2-24.8-57.6-55.7-57.6
		S-192.4,798.3-192.4,829.5z M-167.8,829.5c0-18.5,13.8-33.6,31.2-33.6s31.2,15.2,31.2,33.6c0,19-13.8,34.5-31.2,34.5
		S-167.8,848.5-167.8,829.5z"/>
	<path class="st0" d="M-70.8,879.7c0,2.8,2.5,5.2,5.2,5.2h13.2c4.4,0,7.4-0.6,7.4-5.2v-70.1c1.1-1.9,8.8-13.5,24.8-13.5
		c3.6,0,7.7,1.1,9.4,1.9c2.5,1.1,5.2,0.6,6.6-2.5l6.6-13.5c3-7.4-9.7-10.2-20.1-10.2c-20.1,0-30.3,13.2-32.3,16l-3-9.4
		c-0.6-2.2-2.8-3.9-4.7-3.9h-8c-2.8,0-5.2,2.5-5.2,5.2L-70.8,879.7L-70.8,879.7z"/>
	<path class="st0" d="M29.9,854.9c0,19.6,6.3,32.8,28.1,32.8c13.2,0,29.5-6.6,32.3-8.3c2.8-1.4,3.9-3.6,2.5-6.6l-5-12.1
		c-1.1-2.5-2.8-4.1-6.3-2.5c-3.3,1.7-11,5-16.8,5c-5.2,0-8.8-1.7-8.8-11v-54.6H84c3,0,5.2-2.5,5.2-5.2v-12.4c0-3-2.2-5.2-5.2-5.2
		H55.9v-30.9c0-2.8-2.2-5.2-5-5.2l-15.7,0.3c-2.8,0-5.2,2.5-5.2,5.2v30.6H18.3c-3,0-5.2,2.2-5.2,5.2v12.4c0,2.8,2.2,5.2,5.2,5.2
		h11.6V854.9L29.9,854.9z"/>
</g>
</svg>
